<svg xmlns="http://www.w3.org/2000/svg" xmlns:xlink="http://www.w3.org/1999/xlink" width="500" zoomAndPan="magnify" viewBox="0 0 375 374.999991" height="500" preserveAspectRatio="xMidYMid meet" version="1.0"><defs><clipPath id="3bfd8d5c62"><path d="M 191.71875 37.5 L 330.46875 37.5 L 330.46875 187.5 L 191.71875 187.5 Z M 191.71875 37.5 " clip-rule="nonzero"/></clipPath><clipPath id="dde4ffc71a"><path d="M 37.5 37.5 L 176.25 37.5 L 176.25 187.5 L 37.5 187.5 Z M 37.5 37.5 " clip-rule="nonzero"/></clipPath><clipPath id="d937b1a2bf"><path d="M 0.558594 0.5 L 139.160156 0.5 L 139.160156 150.5 L 0.558594 150.5 Z M 0.558594 0.5 " clip-rule="nonzero"/></clipPath><clipPath id="09956ae232"><rect x="0" width="140" y="0" height="151"/></clipPath><clipPath id="da4c4d3581"><path d="M 37.5 200.523438 L 176.25 200.523438 L 176.25 350.523438 L 37.5 350.523438 Z M 37.5 200.523438 " clip-rule="nonzero"/></clipPath><clipPath id="cd9b9de52c"><path d="M 191.71875 200.523438 L 330.46875 200.523438 L 330.46875 350.523438 L 191.71875 350.523438 Z M 191.71875 200.523438 " clip-rule="nonzero"/></clipPath><clipPath id="ce81b95382"><path d="M 0.777344 0.523438 L 139.46875 0.523438 L 139.46875 150.523438 L 0.777344 150.523438 Z M 0.777344 0.523438 " clip-rule="nonzero"/></clipPath><clipPath id="6e98496f7a"><rect x="0" width="140" y="0" height="151"/></clipPath></defs><rect x="-37.5" width="450" fill="#ffffff" y="-37.499999" height="449.999989" fill-opacity="1"/><rect x="-37.5" width="450" fill="#020a83" y="-37.499999" height="449.999989" fill-opacity="1"/><g clip-path="url(#3bfd8d5c62)"><path fill="#ffffff" d="M 327.136719 72.742188 L 327.136719 37.5 L 193.890625 37.5 L 193.890625 83.160156 L 251.355469 83.160156 L 191.894531 152.257812 L 191.894531 187.5 L 330.347656 187.5 L 330.347656 141.839844 L 267.675781 141.839844 Z M 327.136719 72.742188 " fill-opacity="1" fill-rule="nonzero"/></g><g clip-path="url(#dde4ffc71a)"><g transform="matrix(1, 0, 0, 1, 37, 37)"><g clip-path="url(#09956ae232)"><g clip-path="url(#d937b1a2bf)"><path fill="#ffffff" d="M 3.890625 35.742188 L 3.890625 0.5 L 137.136719 0.5 L 137.136719 46.160156 L 79.667969 46.160156 L 139.132812 115.257812 L 139.132812 150.5 L 0.675781 150.5 L 0.675781 104.839844 L 63.351562 104.839844 Z M 3.890625 35.742188 " fill-opacity="1" fill-rule="nonzero"/></g></g></g></g><g clip-path="url(#da4c4d3581)"><path fill="#ffffff" d="M 172.917969 235.765625 L 172.917969 200.523438 L 39.671875 200.523438 L 39.671875 246.183594 L 97.136719 246.183594 L 37.675781 315.28125 L 37.675781 350.523438 L 176.132812 350.523438 L 176.132812 304.863281 L 113.457031 304.863281 Z M 172.917969 235.765625 " fill-opacity="1" fill-rule="nonzero"/></g><g clip-path="url(#cd9b9de52c)"><g transform="matrix(1, 0, 0, 1, 191, 200)"><g clip-path="url(#6e98496f7a)"><g clip-path="url(#ce81b95382)"><path fill="#ffffff" d="M 4.105469 35.765625 L 4.105469 0.523438 L 137.351562 0.523438 L 137.351562 46.183594 L 79.886719 46.183594 L 139.347656 115.28125 L 139.347656 150.523438 L 0.894531 150.523438 L 0.894531 104.863281 L 63.566406 104.863281 Z M 4.105469 35.765625 " fill-opacity="1" fill-rule="nonzero"/></g></g></g></g></svg>