<?xml version="1.0" encoding="UTF-8"?>
<svg version="1.1" xmlns="http://www.w3.org/2000/svg" width="60" height="56">
<path d="M0 0 C19.8 0 39.6 0 60 0 C60 18.48 60 36.96 60 56 C40.2 56 20.4 56 0 56 C0 37.52 0 19.04 0 0 Z " fill="#020F8C" transform="translate(0,0)"/>
<path d="M0 0 C8.58 0 17.16 0 26 0 C26 9 26 9 23.59375 11.84765625 C22.5728125 12.57855469 21.551875 13.30945313 20.5 14.0625 C19.4790625 14.81660156 18.458125 15.57070313 17.40625 16.34765625 C16.6121875 16.89292969 15.818125 17.43820313 15 18 C18.63 18.33 22.26 18.66 26 19 C26 21.31 26 23.62 26 26 C17.42 26 8.84 26 0 26 C0 18 0 18 1.28515625 16.17382812 C1.87167969 15.79677734 2.45820312 15.41972656 3.0625 15.03125 C3.69414063 14.60585937 4.32578125 14.18046875 4.9765625 13.7421875 C5.64429688 13.33226562 6.31203125 12.92234375 7 12.5 C7.66773438 12.05914062 8.33546875 11.61828125 9.0234375 11.1640625 C10.66622338 10.08451749 12.33113895 9.03878086 14 8 C7.07 7.505 7.07 7.505 0 7 C0 4.69 0 2.38 0 0 Z " fill="#FAFBFC" transform="translate(32,1)"/>
<path d="M0 0 C8.58 0 17.16 0 26 0 C26 2.31 26 4.62 26 7 C21.38 7.33 16.76 7.66 12 8 C13.010625 8.6290625 14.02125 9.258125 15.0625 9.90625 C16.37595695 10.76937886 17.68840542 11.63404373 19 12.5 C19.66773437 12.90992188 20.33546875 13.31984375 21.0234375 13.7421875 C21.97089844 14.38027344 21.97089844 14.38027344 22.9375 15.03125 C23.52402344 15.40830078 24.11054688 15.78535156 24.71484375 16.17382812 C26 18 26 18 26 26 C17.42 26 8.84 26 0 26 C0 23.69 0 21.38 0 19 C3.96 18.67 7.92 18.34 12 18 C11.13375 17.45472656 10.2675 16.90945312 9.375 16.34765625 C8.24891201 15.58754686 7.12397064 14.82573682 6 14.0625 C5.42765625 13.70865234 4.8553125 13.35480469 4.265625 12.99023438 C2.625 11.84765625 2.625 11.84765625 0 9 C0 6.03 0 3.06 0 0 Z " fill="#FCFCFD" transform="translate(1,1)"/>
<path d="M0 0 C8.58 0 17.16 0 26 0 C26 8 26 8 24.71484375 9.82617188 C24.12832031 10.20322266 23.54179687 10.58027344 22.9375 10.96875 C22.30585938 11.39414062 21.67421875 11.81953125 21.0234375 12.2578125 C20.35570313 12.66773438 19.68796875 13.07765625 19 13.5 C18.33226563 13.94085938 17.66453125 14.38171875 16.9765625 14.8359375 C15.33377662 15.91548251 13.66886105 16.96121914 12 18 C18.93 18.495 18.93 18.495 26 19 C26 21.31 26 23.62 26 26 C17.42 26 8.84 26 0 26 C0 17 0 17 2.625 14.15234375 C3.72922167 13.38333223 4.85545722 12.64510584 6 11.9375 C6.57234375 11.54884766 7.1446875 11.16019531 7.734375 10.75976562 C9.13804064 9.81229132 10.56678722 8.90215626 12 8 C8.04 7.67 4.08 7.34 0 7 C0 4.69 0 2.38 0 0 Z " fill="#FCFCFD" transform="translate(1,29)"/>
<path d="M0 0 C8.58 0 17.16 0 26 0 C26 2.31 26 4.62 26 7 C20.06 7.495 20.06 7.495 14 8 C14.78246094 8.56589844 15.56492187 9.13179687 16.37109375 9.71484375 C17.38300781 10.44832031 18.39492188 11.18179688 19.4375 11.9375 C20.44683594 12.66839844 21.45617187 13.39929688 22.49609375 14.15234375 C25 16 25 16 26 17 C26 19.97 26 22.94 26 26 C17.42 26 8.84 26 0 26 C0 23.69 0 21.38 0 19 C4.62 18.67 9.24 18.34 14 18 C12.989375 17.3709375 11.97875 16.741875 10.9375 16.09375 C9.62404305 15.23062114 8.31159458 14.36595627 7 13.5 C6.33226562 13.09007812 5.66453125 12.68015625 4.9765625 12.2578125 C4.34492187 11.83242188 3.71328125 11.40703125 3.0625 10.96875 C2.18271484 10.40317383 2.18271484 10.40317383 1.28515625 9.82617188 C0 8 0 8 0 0 Z " fill="#FAFBFC" transform="translate(32,29)"/>
<path d="M0 0 C0.33 0 0.66 0 1 0 C2.54659574 8.69960102 2.31567432 17.28365762 1 26 C0.67 26 0.34 26 0 26 C0.0825 24.700625 0.165 23.40125 0.25 22.0625 C-0.10950429 18.21763208 -0.86248705 17.12888161 -3.73828125 14.43359375 C-5.90515622 12.78368068 -8.14258412 11.25752058 -10.41015625 9.75 C-11.26480469 9.1725 -12.11945312 8.595 -13 8 C-13 7.67 -13 7.34 -13 7 C-8.71 7 -4.42 7 0 7 C0 4.69 0 2.38 0 0 Z " fill="#071E93" transform="translate(58,29)"/>
<path d="M0 0 C0.33 0 0.66 0 1 0 C2.31567432 8.71634238 2.54659574 17.30039898 1 26 C0.67 26 0.34 26 0 26 C0 23.69 0 21.38 0 19 C-3.96 19 -7.92 19 -12 19 C-9.31006099 16.23094514 -6.94612992 13.96270533 -3.75 11.75 C-0.06078962 8.06078962 -0.02201548 5.05255234 0 0 Z " fill="#051C92" transform="translate(58,1)"/>
<path d="M0 0 C1.79244141 0.01740234 1.79244141 0.01740234 3.62109375 0.03515625 C5.41740234 0.04869141 5.41740234 0.04869141 7.25 0.0625 C8.17683594 0.07410156 9.10367187 0.08570313 10.05859375 0.09765625 C6.35768854 4.02285875 2.50899719 7.04345781 -1.94140625 10.09765625 C-2.60140625 9.76765625 -3.26140625 9.43765625 -3.94140625 9.09765625 C-4.0390625 2.9453125 -4.0390625 2.9453125 -3.94140625 1.09765625 C-2.94140625 0.09765625 -2.94140625 0.09765625 0 0 Z " fill="#091991" transform="translate(3.94140625,35.90234375)"/>
</svg>
